<?xml version="1.0" encoding="UTF-8"?>
<!DOCTYPE svg PUBLIC "-//W3C//DTD SVG 1.1//EN" "http://www.w3.org/Graphics/SVG/1.1/DTD/svg11.dtd">
<!-- Creator: CorelDRAW X7 -->
<svg xmlns="http://www.w3.org/2000/svg" xml:space="preserve" width="8.5in" height="8.5in" version="1.1" style="shape-rendering:geometricPrecision; text-rendering:geometricPrecision; image-rendering:optimizeQuality; fill-rule:evenodd; clip-rule:evenodd"
viewBox="0 0 8500 8500"
 xmlns:xlink="http://www.w3.org/1999/xlink">
 <defs>
  <style type="text/css">
   <![CDATA[
    .fil1 {fill:#4E19B2}
    .fil0 {fill:#4E19B2;fill-rule:nonzero}
   ]]>
  </style>
 </defs>
 <g id="Layer_x0020_1">
  <metadata id="CorelCorpID_0Corel-Layer"/>
  <polygon class="fil0" points="4130,3758 4134,3757 4134,3742 4166,3742 4166,3731 4121,3731 4121,3799 4166,3799 4166,3787 4130,3787 4134,3785 4134,3769 4164,3769 4164,3758 "/>
  <path class="fil0" d="M4190 3790c-6,0 -10,-6 -10,-16 0,-11 4,-17 10,-17 6,0 9,5 10,9l12 -3c-2,-6 -8,-16 -22,-16 -14,0 -23,10 -23,27 0,16 9,26 23,26 14,0 20,-10 22,-18l-12 -2c-1,5 -3,10 -10,10z"/>
  <path class="fil0" d="M4225 3736l0 63 -6 0c-3,0 -6,-3 -6,-6l0 -63 7 0c3,0 5,3 5,6z"/>
  <path class="fil0" d="M4271 3799c-1,-2 -2,-5 -2,-10l0 -26c0,-9 -5,-16 -19,-16 -11,0 -19,6 -21,15l11 2c1,-5 5,-7 9,-7 6,0 8,2 8,6 0,3 -2,4 -11,6 -12,1 -19,5 -19,16 0,9 7,15 15,15 7,0 13,-3 15,-8 0,0 0,0 0,1 1,3 3,6 6,6l8 0zm-14 -20c0,8 -6,12 -11,12 -4,0 -7,-3 -7,-7 0,-4 4,-7 8,-7 5,-1 9,-2 10,-3l0 5z"/>
  <path class="fil0" d="M4291 3788c-4,0 -6,0 -6,-5l0 -24 10 0 0 -10 -17 0 7 -2 0 -6c0,-4 -2,-6 -5,-6l-7 0 0 14 0 10 0 28c0,10 4,12 14,12 3,0 6,0 8,0l0 -11c-2,0 -3,0 -4,0l0 0z"/>
  <path class="fil0" d="M4336 3762c-1,-9 -9,-15 -20,-15 -11,0 -19,6 -19,16 0,10 7,13 15,15l5 0c5,1 8,3 8,6 0,5 -3,7 -8,7 -6,0 -10,-3 -11,-9l-11 2c1,10 10,16 22,16 11,0 21,-5 21,-16 0,-12 -8,-14 -17,-16l-4 0c-5,-1 -8,-2 -8,-6 0,-4 3,-6 7,-6 5,0 8,3 9,8l11 -2z"/>
  <path class="fil0" d="M4367 3800c11,0 20,-10 20,-27 0,-16 -9,-26 -20,-26 -6,0 -12,3 -14,8l-1 0 0 0c0,-4 -2,-6 -5,-6l-6 0 0 67 6 0c3,0 6,-3 6,-6l0 -17 0 0c3,4 7,7 14,7zm-4 -43c7,0 11,6 11,17 0,10 -4,16 -11,16 -7,0 -11,-6 -11,-16 0,-11 4,-17 11,-17z"/>
  <path class="fil0" d="M4432 3799c-1,-2 -1,-5 -1,-10l0 -26c0,-9 -6,-16 -20,-16 -11,0 -19,6 -21,15l11 2c2,-5 5,-7 10,-7 5,0 8,2 8,6 0,3 -3,4 -12,6 -12,1 -19,5 -19,16 0,9 8,15 16,15 6,0 12,-3 15,-8 0,0 0,0 0,1 0,3 2,6 5,6l8 0zm-13 -20c0,8 -7,12 -12,12 -4,0 -6,-3 -6,-7 0,-4 3,-7 8,-7 4,-1 8,-2 10,-3l0 2 0 3z"/>
  <path class="fil0" d="M4454 3746c-11,0 -20,11 -20,27 0,16 9,26 20,26 6,0 12,-3 14,-8l1 0 0 1c0,3 2,6 5,6l6 0 0 -69 -6 0c-3,0 -6,3 -6,6l0 18 0 0c-3,-4 -8,-7 -14,-7zm4 43c-7,0 -12,-6 -12,-16 0,-11 5,-17 12,-17 6,0 11,6 11,17 0,10 -5,16 -11,16z"/>
  <g>
   <path class="fil1" d="M4039 3742l65 -16 0 20 -50 10 0 12 50 -10 0 14 -50 10 0 12 50 -10 0 14c0,1 -1,3 -2,3l-64 15 0 -70 0 -2 0 0c0,-1 0,-1 0,-2 -2,0 -3,-1 -5,-2l51 -34c1,0 1,0 2,0 0,0 1,1 1,1l1 17 -49 18zm-2 75l-14 -6 0 -75 1 0 -1 0 8 4 0 0 1 1 0 0 5 2 0 1 0 73zm-5 -78l42 -30 0 -18c0,-1 0,-2 -1,-2 0,0 -1,0 -1,0l-49 47 1 0 8 3z"/>
  </g>
 </g>
</svg>
