<?xml version="1.0" encoding="UTF-8"?>
<!DOCTYPE svg PUBLIC "-//W3C//DTD SVG 1.1//EN" "http://www.w3.org/Graphics/SVG/1.1/DTD/svg11.dtd">
<!-- Creator: CorelDRAW X7 -->
<svg xmlns="http://www.w3.org/2000/svg" xml:space="preserve" width="8.5in" height="11in" version="1.1" style="shape-rendering:geometricPrecision; text-rendering:geometricPrecision; image-rendering:optimizeQuality; fill-rule:evenodd; clip-rule:evenodd"
viewBox="0 0 8500 11000"
 xmlns:xlink="http://www.w3.org/1999/xlink">
 <defs>
  <style type="text/css">
   <![CDATA[
    .fil0 {fill:#4E19B2}
   ]]>
  </style>
 </defs>
 <g id="Layer_x0020_1">
  <metadata id="CorelCorpID_0Corel-Layer"/>
  <g>
   <path class="fil0" d="M4024 3897l108 -23 0 29 -82 15 0 18 82 -15 0 22 -82 15 0 18 82 -15 0 20c0,3 -2,5 -4,6l-106 22 0 -105 0 -3 0 0c0,-1 0,-2 0,-3 -2,-1 -5,-2 -7,-3l84 -51c1,-1 2,-1 3,0 1,0 1,1 1,2l1 25 -80 26zm-4 113l-21 -9 0 -112 0 0 0 0 12 6 0 0 3 1 0 0 6 3 0 2 0 109zm-8 -116l70 -47 0 -27c0,-1 0,-1 -1,-2 -1,0 -2,0 -3,1l-79 70 1 -1 12 6z"/>
  </g>
 </g>
</svg>
